<?xml version="1.0" standalone="no"?>
<!DOCTYPE svg PUBLIC "-//W3C//DTD SVG 20010904//EN"
 "http://www.w3.org/TR/2001/REC-SVG-20010904/DTD/svg10.dtd">
<svg version="1.0" xmlns="http://www.w3.org/2000/svg"
 width="1024.000000pt" height="1024.000000pt" viewBox="0 0 1024.000000 1024.000000"
 preserveAspectRatio="xMidYMid meet">
<metadata>
Created by potrace 1.11, written by Peter Selinger 2001-2013
</metadata>
<g transform="translate(0.000000,1024.000000) scale(0.100000,-0.100000)"
fill="#000000" stroke="none">
<path d="M1375 6803 l0 -3418 -251 -185 c-138 -102 -262 -193 -275 -203 -28
-20 -424 -311 -454 -333 -261 -191 -390 -288 -390 -294 0 -4 139 -110 310
-235 171 -126 411 -303 535 -394 124 -91 293 -215 375 -276 l150 -111 0 -667
0 -667 222 0 223 0 0 668 0 668 48 -1 47 0 0 -665 0 -665 223 -3 222 -2 -2
668 -3 668 51 -1 51 0 1 -650 c0 -357 1 -658 1 -667 1 -17 18 -18 221 -18
l220 0 0 88 c1 48 1 348 1 667 l0 580 49 0 48 0 1 -650 c0 -357 0 -658 0 -667
1 -17 18 -18 224 -18 l222 0 0 667 0 668 48 0 47 0 0 -667 0 -668 223 0 222 0
0 668 0 668 1125 -2 c619 -1 1127 -2 1130 -3 3 0 6 -299 6 -663 l0 -663 222
-3 222 -2 0 668 0 668 48 0 49 -1 1 -650 c0 -357 1 -658 1 -667 1 -17 18 -18
221 -18 l220 0 0 668 0 668 50 0 50 0 0 -668 0 -668 222 2 221 3 1 665 1 664
48 1 47 1 0 -668 0 -668 223 0 222 0 0 667 0 667 48 1 47 1 0 -668 0 -668 223
0 222 0 0 668 0 667 135 99 c74 55 167 123 205 151 39 29 286 211 550 405 264
194 480 356 480 362 0 5 -21 23 -47 41 -26 18 -181 131 -345 252 -164 121
-433 319 -598 440 -165 121 -318 234 -340 250 l-41 30 1 3415 0 3415 -222 3
-223 2 0 -3418 0 -3419 -48 1 -48 1 0 3415 0 3415 -222 3 -222 2 0 -3418 0
-3419 -42 2 c-24 2 -46 3 -49 4 -3 1 -6 1532 -7 3404 0 1871 -1 3408 -1 3415
-1 9 -52 12 -221 12 l-220 0 0 -3418 0 -3419 -50 1 -50 1 0 3417 0 3418 -220
0 c-121 0 -220 -3 -221 -7 0 -5 -1 -1543 -1 -3419 l-1 -3411 -49 1 -48 1 0
3418 0 3417 -222 -2 -222 -3 -1 -3415 0 -3415 -47 -1 -48 0 0 1767 0 1768
-153 233 c-84 128 -183 279 -220 336 -37 56 -68 102 -69 102 -2 0 -3 -834 -3
-1852 l1 -1853 158 -239 c87 -131 160 -244 162 -250 3 -8 -254 -11 -1018 -11
l-1023 0 0 3415 0 3415 -223 3 -222 2 -2 -3417 -3 -3418 -45 0 -45 0 -2 3400
c-1 1870 -2 3408 -2 3418 -1 16 -18 17 -221 17 l-220 0 0 -37 c-1 -21 -2
-1559 -3 -3418 l-2 -3380 -45 0 -45 0 -2 3385 c-1 1862 -3 3400 -3 3418 l0 32
-220 0 -220 0 -1 -27 c0 -16 -1 -1554 -1 -3418 l-1 -3391 -46 1 -46 0 -3 3418
-2 3417 -223 0 -222 0 0 -3417 0 -3418 -45 0 -45 0 -3 3418 -2 3417 -223 0
-222 0 0 -3417z"/>
<path d="M4080 8221 l0 -1852 73 -112 c95 -145 257 -392 318 -484 26 -40 50
-70 52 -65 2 4 3 835 3 1847 l-1 1841 -75 114 c-41 63 -141 216 -222 340
l-148 224 0 -1853z"/>
<path d="M4622 7392 l0 -1850 215 -328 c118 -181 218 -333 222 -337 4 -4 7
826 7 1845 l-1 1853 -79 120 c-44 66 -128 193 -188 283 -59 90 -108 166 -108
168 0 5 -42 65 -61 88 -4 5 -7 -824 -7 -1842z"/>
<path d="M5164 6569 l1 -1856 40 -59 c22 -32 42 -63 44 -68 2 -5 30 -48 61
-95 31 -47 111 -167 176 -266 l119 -180 3 1848 2 1848 -92 142 c-51 78 -147
223 -213 324 -66 100 -125 190 -131 200 -7 12 -10 -511 -10 -1838z"/>
</g>
</svg>
